{"title":"Killer Joe (2011) BRRip x264 aac ukr sub","uid":9673350,"size":757166363,"categoryP":"video","categoryS":"movies","magnet":"?xt=urn:btih:2f19cb5cf3acb8be327748c8ffc51354893b1754&amp;dn=Killer+Joe+%282011%29+BRRip+x264+aac+ukr+sub&amp;tr=udp%3A%2F%2Ftracker.openbittorrent.com%3A80&amp;tr=udp%3A%2F%2Fopen.demonii.com%3A1337&amp;tr=udp%3A%2F%2Ftracker.coppersurfer.tk%3A6969&amp;tr=udp%3A%2F%2Fexodus.desync.com%3A6969","seeders":1,"leechers":0,"uploader":"orysia","files":-1,"time":1393510821,"description":"Crime | Thriller\n\n\nDirector: William Friedkin\nWriter: Tracy Letts\nStars: Matthew McConaughey, Emile Hirsch, Juno Temple\n\nFinding himself in considerable debt, Chris a Texan drug dealer, decides the only solution is to murder his mother to collect the insurance money. Getting together with his father, the ex-husband of Chris' mother, they decide to hire Joe Cooper a contract killer, who also happens to be a police detective. The plan is that the money will go to Chris' sister Dottie. However due to the size of the contract fee, Chris agrees that Joe can take Dottie as a retainer until the insurance comes through.\n\nFormat                                   : MPEG-4\nFormat profile                           : Base Media\nCodec ID                                 : isom\nFile size                                : 722 MiB\nDuration                                 : 1h 42mn\nOverall bit rate mode                    : Variable\nOverall bit rate                         : 987 Kbps\nMovie name                               : Killer Joe*2011 /Sjanyk\nRecorded date                            : 2011\nEncoded date                             : UTC 2013-12-31 08:07:31\nTagged date                              : UTC 2013-12-31 08:07:31\nWriting application                      : Yamb 2.0.0.8 [http://yamb.unite-video.com]\nComment                                  : http://cinemasterpiece(dot)wordpress(dot)com/\n\nVideo\nID                                       : 1\nFormat                                   : AVC\nFormat/Info                              : Advanced Video Codec\nFormat profile                           : &lt;a class=&quot;__cf_email__&quot; href=&quot;/cdn-cgi/l/email-protection&quot; data-cfemail=&quot;e2af838b8ca2aed1ccd3&quot;&gt;[email&amp;#160;protected]&lt;/a&gt;&lt;script cf-hash='f9e31' type=&quot;text/javascript&quot;&gt;\n/* &lt;![CDATA[ */!function(){try{var t=&quot;currentScript&quot;in document?document.currentScript:function(){for(var t=document.getElementsByTagName(&quot;script&quot;),e=t.length;e--;)if(t[e].getAttribute(&quot;cf-hash&quot;))return t[e]}();if(t&amp;&amp;t.previousSibling){var e,r,n,i,c=t.previousSibling,a=c.getAttribute(&quot;data-cfemail&quot;);if(a){for(e=&quot;&quot;,r=parseInt(a.substr(0,2),16),n=2;a.length-n;n+=2)i=parseInt(a.substr(n,2),16)^r,e+=String.fromCharCode(i);e=document.createTextNode(e),c.parentNode.replaceChild(e,c)}}}catch(u){}}();/* ]]&gt; */&lt;/script&gt;\nFormat settings, CABAC                   : Yes\nFormat settings, ReFrames                : 4 frames\nCodec ID                                 : avc1\nCodec ID/Info                            : Advanced Video Coding\nDuration                                 : 1h 42mn\nBit rate                                 : 920 Kbps\nMaximum bit rate                         : 17.2 Mbps\nWidth                                    : 800 pixels\nHeight                                   : 480 pixels\nDisplay aspect ratio                     : 1.667\nFrame rate mode                          : Constant\nFrame rate                               : 23.976 fps\nColor space                              : YUV\nChroma subsampling                       : 4:2:0\nBit depth                                : 8 bits\nScan type                                : Progressive\nBits/(Pixel*Frame)                       : 0.100\nStream size                              : 665 MiB (92%)\nWriting library                          : x264 core 138 r2358 9e941d1\nEncoding settings                        : cabac=1 / ref=3 / deblock=1:0:0 / analyse=0x1:0x111 / me=hex / subme=7 / psy=1 / psy_rd=1.00:0.00 / mixed_ref=1 / me_range=16 / chroma_me=1 / trellis=1 / 8x8dct=0 / cqm=0 / deadzone=21,11 / fast_pskip=1 / chroma_qp_offset=-2 / threads=3 / lookahead_threads=1 / sliced_threads=0 / nr=0 / decimate=1 / interlaced=0 / bluray_compat=0 / constrained_intra=0 / bframes=3 / b_pyramid=2 / b_adapt=1 / b_bias=0 / direct=1 / weightb=1 / open_gop=0 / weightp=2 / keyint=240 / keyint_min=23 / scenecut=30 / intra_refresh=0 / rc_lookahead=40 / rc=abr / mbtree=1 / bitrate=920 / ratetol=1.0 / qcomp=0.60 / qpmin=0 / qpmax=69 / qpstep=4 / vbv_maxrate=14000 / vbv_bufsize=14000 / nal_hrd=none / ip_ratio=1.40 / aq=1:1.00\nEncoded date                             : UTC 2013-12-31 08:07:31\nTagged date                              : UTC 2013-12-31 08:09:29\n\nAudio\nID                                       : 2\nFormat                                   : AAC\nFormat/Info                              : Advanced Audio Codec\nFormat profile                           : LC\nCodec ID                                 : 40\nDuration                                 : 1h 42mn\nBit rate mode                            : Variable\nBit rate                                 : 74.0 Kbps\nMaximum bit rate                         : 146 Kbps\nChannel(s)                               : 2 channels\nChannel positions                        : Front: L R\nSampling rate                            : 48.0 KHz\nCompression mode                         : Lossy\nStream size                              : 54.2 MiB (7%)\nLanguage                                 : English\nEncoded date                             : UTC 2013-12-31 08:09:26\nTagged date                              : UTC 2013-12-31 08:09:29\n\nUkrainian subtitles are HARDCODED\n\nScreenshots: &lt;a href=&quot;\nhttp://postimg.org/image/l3q50uuxx/&quot; rel=&quot;nofollow&quot; target=&quot;_NEW&quot;&gt;\nhttp://postimg.org/image/l3q50uuxx/&lt;/a&gt; &lt;a href=&quot;\nhttp://postimg.org/image/6ykbz1lwl/&quot; rel=&quot;nofollow&quot; target=&quot;_NEW&quot;&gt;\nhttp://postimg.org/image/6ykbz1lwl/&lt;/a&gt; &lt;a href=&quot;\nhttp://postimg.org/image/6abhg3n6t/&quot; rel=&quot;nofollow&quot; target=&quot;_NEW&quot;&gt;\nhttp://postimg.org/image/6abhg3n6t/&lt;/a&gt; &lt;a href=&quot;\nhttp://postimg.org/image/qvq9804rp/&quot; rel=&quot;nofollow&quot; target=&quot;_NEW&quot;&gt;\nhttp://postimg.org/image/qvq9804rp/&lt;/a&gt; &lt;a href=&quot;\nhttp://postimg.org/image/iri539icl/&quot; rel=&quot;nofollow&quot; target=&quot;_NEW&quot;&gt;\nhttp://postimg.org/image/iri539icl/&lt;/a&gt;","torrent":{"xt":"urn:btih:2f19cb5cf3acb8be327748c8ffc51354893b1754","amp;dn":"Killer+Joe+%282011%29+BRRip+x264+aac+ukr+sub","amp;tr":["udp%3A%2F%2Ftracker.openbittorrent.com%3A80","udp%3A%2F%2Fopen.demonii.com%3A1337","udp%3A%2F%2Ftracker.coppersurfer.tk%3A6969","udp%3A%2F%2Fexodus.desync.com%3A6969"],"infoHash":"2f19cb5cf3acb8be327748c8ffc51354893b1754","infoHashBuffer":{"type":"Buffer","data":[47,25,203,92,243,172,184,190,50,119,72,200,255,197,19,84,137,59,23,84]},"announce":[],"urlList":[]}}